REM DIRINDEX 1\2\4,1\2\5,1\2\6,1\3\7,1\3\8,1\3\9,1\3\10
REM DIRNAME folder01,folder02,folder03,folder04,folder05,folder06,folder07,folder08,folder09,folder10
TITLE ""
FILE "a_77.mp3" MP3
  TRACK 01 AUDIO
    TITLE "0:"
    INDEX 01 00:00:00
  TRACK 02 AUDIO
    TITLE "6:cjc058_2084"
    INDEX 01 00:00:15
  TRACK 03 AUDIO
    TITLE "0:"
    INDEX 01 00:02:34
  TRACK 04 AUDIO
    TITLE "4:cjc058_2085"
    INDEX 01 00:03:08
  TRACK 05 AUDIO
    TITLE "0:"
    INDEX 01 00:04:64
  TRACK 06 AUDIO
    TITLE "5:cjc058_2086"
    INDEX 01 00:05:22
  TRACK 07 AUDIO
    TITLE "0:"
    INDEX 01 00:08:34
  TRACK 08 AUDIO
    TITLE "4:cjc058_2087"
    INDEX 01 00:09:40
  TRACK 09 AUDIO
    TITLE "0:"
    INDEX 01 00:11:19
  TRACK 10 AUDIO
    TITLE "5:cjc058_2088"
    INDEX 01 00:11:52
  TRACK 11 AUDIO
    TITLE "0:"
    INDEX 01 00:13:32
  TRACK 12 AUDIO
    TITLE "4:cjc058_2089"
    INDEX 01 00:14:37
  TRACK 13 AUDIO
    TITLE "0:"
    INDEX 01 00:16:02
  TRACK 14 AUDIO
    TITLE "5:cjc058_2090"
    INDEX 01 00:16:36
  TRACK 15 AUDIO
    TITLE "0:"
    INDEX 01 00:17:59
  TRACK 16 AUDIO
    TITLE "4:cjc058_2091"
    INDEX 01 00:18:66
  TRACK 17 AUDIO
    TITLE "0:"
    INDEX 01 00:20:39
  TRACK 18 AUDIO
    TITLE "5:cjc058_2092"
    INDEX 01 00:20:73
  TRACK 19 AUDIO
    TITLE "0:"
    INDEX 01 00:22:34
  TRACK 20 AUDIO
    TITLE "4:cjc058_2093"
    INDEX 01 00:23:42
  TRACK 21 AUDIO
    TITLE "0:"
    INDEX 01 00:25:64
  TRACK 22 AUDIO
    TITLE "5:cjc058_2094"
    INDEX 01 00:26:22
  TRACK 23 AUDIO
    TITLE "0:"
    INDEX 01 00:28:04
  TRACK 24 AUDIO
    TITLE "4:cjc058_2095"
    INDEX 01 00:29:11
  TRACK 25 AUDIO
    TITLE "0:"
    INDEX 01 00:30:71
  TRACK 26 AUDIO
    TITLE "5:cjc058_2096"
    INDEX 01 00:31:29
  TRACK 27 AUDIO
    TITLE "0:"
    INDEX 01 00:33:07
  TRACK 28 AUDIO
    TITLE "4:cjc058_2097"
    INDEX 01 00:34:16
  TRACK 29 AUDIO
    TITLE "0:"
    INDEX 01 00:36:13
  TRACK 30 AUDIO
    TITLE "5:cjc058_2098"
    INDEX 01 00:36:48
  TRACK 31 AUDIO
    TITLE "0:"
    INDEX 01 00:38:30
  TRACK 32 AUDIO
    TITLE "4:cjc058_2099"
    INDEX 01 00:39:35
  TRACK 33 AUDIO
    TITLE "0:"
    INDEX 01 00:41:40
  TRACK 34 AUDIO
    TITLE "5:cjc058_2100"
    INDEX 01 00:41:73
  TRACK 35 AUDIO
    TITLE "0:"
    INDEX 01 00:44:01
  TRACK 36 AUDIO
    TITLE "4:cjc058_2101"
    INDEX 01 00:45:10
  TRACK 37 AUDIO
    TITLE "0:"
    INDEX 01 00:46:47
  TRACK 38 AUDIO
    TITLE "5:cjc058_2102"
    INDEX 01 00:47:05
  TRACK 39 AUDIO
    TITLE "0:"
    INDEX 01 00:49:16
  TRACK 40 AUDIO
    TITLE "4:cjc058_2103"
    INDEX 01 00:50:25
  TRACK 41 AUDIO
    TITLE "0:"
    INDEX 01 00:52:08
  TRACK 42 AUDIO
    TITLE "5:cjc058_2104"
    INDEX 01 00:52:37
  TRACK 43 AUDIO
    TITLE "0:"
    INDEX 01 00:55:46
  TRACK 44 AUDIO
    TITLE "4:cjc058_2105"
    INDEX 01 00:56:57
  TRACK 45 AUDIO
    TITLE "0:"
    INDEX 01 00:58:44
  TRACK 46 AUDIO
    TITLE "5:cjc058_2106"
    INDEX 01 00:59:02
  TRACK 47 AUDIO
    TITLE "0:"
    INDEX 01 01:02:20
  TRACK 48 AUDIO
    TITLE "4:cjc058_2107"
    INDEX 01 01:03:27
  TRACK 49 AUDIO
    TITLE "0:"
    INDEX 01 01:05:28
  TRACK 50 AUDIO
    TITLE "5:cjc058_2108"
    INDEX 01 01:05:62
  TRACK 51 AUDIO
    TITLE "0:"
    INDEX 01 01:08:31
  TRACK 52 AUDIO
    TITLE "4:cjc058_2109"
    INDEX 01 01:09:42
  TRACK 53 AUDIO
    TITLE "0:"
    INDEX 01 01:11:07
  TRACK 54 AUDIO
    TITLE "5:cjc058_2110"
    INDEX 01 01:11:37
  TRACK 55 AUDIO
    TITLE "0:"
    INDEX 01 01:12:36
  TRACK 56 AUDIO
    TITLE "4:cjc058_2111"
    INDEX 01 01:13:44
  TRACK 57 AUDIO
    TITLE "0:"
    INDEX 01 01:14:74
  TRACK 58 AUDIO
    TITLE "5:cjc058_2112"
    INDEX 01 01:15:31
  TRACK 59 AUDIO
    TITLE "0:"
    INDEX 01 01:17:73
  TRACK 60 AUDIO
    TITLE "4:cjc058_2113"
    INDEX 01 01:19:05
  TRACK 61 AUDIO
    TITLE "0:"
    INDEX 01 01:20:61
  TRACK 62 AUDIO
    TITLE "5:cjc058_2114"
    INDEX 01 01:21:18
  TRACK 63 AUDIO
    TITLE "0:"
    INDEX 01 01:22:70
  TRACK 64 AUDIO
    TITLE "4:cjc058_2115"
    INDEX 01 01:24:04
  TRACK 65 AUDIO
    TITLE "0:"
    INDEX 01 01:25:25
  TRACK 66 AUDIO
    TITLE "5:cjc058_2116"
    INDEX 01 01:25:58
  TRACK 67 AUDIO
    TITLE "0:"
    INDEX 01 01:28:41
  TRACK 68 AUDIO
    TITLE "4:cjc058_2117"
    INDEX 01 01:29:46
  TRACK 69 AUDIO
    TITLE "0:"
    INDEX 01 01:31:34
  TRACK 70 AUDIO
    TITLE "5:cjc058_2118"
    INDEX 01 01:31:67
  TRACK 71 AUDIO
    TITLE "0:"
    INDEX 01 01:34:40
  TRACK 72 AUDIO
    TITLE "4:cjc058_2119"
    INDEX 01 01:35:49
  TRACK 73 AUDIO
    TITLE "0:"
    INDEX 01 01:37:21
  TRACK 74 AUDIO
    TITLE "5:cjc058_2120"
    INDEX 01 01:37:54
  TRACK 75 AUDIO
    TITLE "0:"
    INDEX 01 01:39:74
  TRACK 76 AUDIO
    TITLE "4:cjc058_2121"
    INDEX 01 01:41:07
  TRACK 77 AUDIO
    TITLE "0:"
    INDEX 01 01:42:61
  TRACK 78 AUDIO
    TITLE "5:cjc058_2122"
    INDEX 01 01:43:19
  TRACK 79 AUDIO
    TITLE "0:"
    INDEX 01 01:45:71
  TRACK 80 AUDIO
    TITLE "4:cjc058_2123"
    INDEX 01 01:47:03
  TRACK 81 AUDIO
    TITLE "0:"
    INDEX 01 01:48:46
  TRACK 82 AUDIO
    TITLE "5:cjc058_2124"
    INDEX 01 01:49:06
  TRACK 83 AUDIO
    TITLE "0:"
    INDEX 01 01:50:62
  TRACK 84 AUDIO
    TITLE "4:cjc058_2125"
    INDEX 01 01:51:68
  TRACK 85 AUDIO
    TITLE "0:"
    INDEX 01 01:53:39
  TRACK 86 AUDIO
    TITLE "5:cjc058_2126"
    INDEX 01 01:53:72
  TRACK 87 AUDIO
    TITLE "0:"
    INDEX 01 01:55:46
  TRACK 88 AUDIO
    TITLE "4:cjc058_2127"
    INDEX 01 01:56:53
  TRACK 89 AUDIO
    TITLE "0:"
    INDEX 01 01:58:58
  TRACK 90 AUDIO
    TITLE "5:cjc058_2128"
    INDEX 01 01:59:18
  TRACK 91 AUDIO
    TITLE "0:"
    INDEX 01 02:03:04
  TRACK 92 AUDIO
    TITLE "4:cjc058_2129"
    INDEX 01 02:04:13
  TRACK 93 AUDIO
    TITLE "0:"
    INDEX 01 02:06:22
  TRACK 94 AUDIO
    TITLE "5:cjc058_2130"
    INDEX 01 02:06:55
  TRACK 95 AUDIO
    TITLE "0:"
    INDEX 01 02:08:47
  TRACK 96 AUDIO
    TITLE "4:cjc058_2131"
    INDEX 01 02:09:56
  TRACK 97 AUDIO
    TITLE "0:"
    INDEX 01 02:11:14
  TRACK 98 AUDIO
    TITLE "5:cjc058_2132"
    INDEX 01 02:11:47
  TRACK 99 AUDIO
    TITLE "0:"
    INDEX 01 02:14:65
  TRACK 100 AUDIO
    TITLE "4:cjc058_2133"
    INDEX 01 02:15:74
  TRACK 101 AUDIO
    TITLE "0:"
    INDEX 01 02:17:71
  TRACK 102 AUDIO
    TITLE "5:cjc058_2134"
    INDEX 01 02:18:29
  TRACK 103 AUDIO
    TITLE "0:"
    INDEX 01 02:19:64
  TRACK 104 AUDIO
    TITLE "4:cjc058_2135"
    INDEX 01 02:20:73
  TRACK 105 AUDIO
    TITLE "0:"
    INDEX 01 02:23:23
  TRACK 106 AUDIO
    TITLE "5:cjc058_2136"
    INDEX 01 02:23:56
  TRACK 107 AUDIO
    TITLE "0:"
    INDEX 01 02:26:23
  TRACK 108 AUDIO
    TITLE "4:cjc058_2137"
    INDEX 01 02:27:32
  TRACK 109 AUDIO
    TITLE "0:"
    INDEX 01 02:29:08
  TRACK 110 AUDIO
    TITLE "5:cjc058_2138"
    INDEX 01 02:29:41
  TRACK 111 AUDIO
    TITLE "0:"
    INDEX 01 02:32:20
  TRACK 112 AUDIO
    TITLE "4:cjc058_2139"
    INDEX 01 02:33:27
  TRACK 113 AUDIO
    TITLE "0:"
    INDEX 01 02:35:47
  TRACK 114 AUDIO
    TITLE "5:cjc058_2140"
    INDEX 01 02:36:06
  TRACK 115 AUDIO
    TITLE "0:"
    INDEX 01 02:38:57
  TRACK 116 AUDIO
    TITLE "4:cjc058_2141"
    INDEX 01 02:39:63
  TRACK 117 AUDIO
    TITLE "0:"
    INDEX 01 02:42:20
  TRACK 118 AUDIO
    TITLE "5:cjc058_2142"
    INDEX 01 02:42:53
  TRACK 119 AUDIO
    TITLE "0:"
    INDEX 01 02:44:46
  TRACK 120 AUDIO
    TITLE "4:cjc058_2143"
    INDEX 01 02:45:54
  TRACK 121 AUDIO
    TITLE "0:"
    INDEX 01 02:46:67
  TRACK 122 AUDIO
    TITLE "5:cjc058_2144"
    INDEX 01 02:47:27
  TRACK 123 AUDIO
    TITLE "0:"
    INDEX 01 02:50:55
  TRACK 124 AUDIO
    TITLE "4:cjc058_2145"
    INDEX 01 02:51:62
  TRACK 125 AUDIO
    TITLE "0:"
    INDEX 01 02:53:35
  TRACK 126 AUDIO
    TITLE "5:cjc058_2146"
    INDEX 01 02:53:69
  TRACK 127 AUDIO
    TITLE "0:"
    INDEX 01 02:56:00
  TRACK 128 AUDIO
    TITLE "4:cjc058_2147"
    INDEX 01 02:57:08
  TRACK 129 AUDIO
    TITLE "0:"
    INDEX 01 02:59:52
  TRACK 130 AUDIO
    TITLE "5:cjc058_2148"
    INDEX 01 03:00:10
  TRACK 131 AUDIO
    TITLE "0:"
    INDEX 01 03:02:70
  TRACK 132 AUDIO
    TITLE "4:cjc058_2149"
    INDEX 01 03:04:02
  TRACK 133 AUDIO
    TITLE "0:"
    INDEX 01 03:06:22
  TRACK 134 AUDIO
    TITLE "5:cjc058_2150"
    INDEX 01 03:06:56
  TRACK 135 AUDIO
    TITLE "0:"
    INDEX 01 03:08:59
  TRACK 136 AUDIO
    TITLE "4:cjc058_2151"
    INDEX 01 03:09:64
  TRACK 137 AUDIO
    TITLE "0:"
    INDEX 01 03:11:43
  TRACK 138 AUDIO
    TITLE "5:cjc058_2152"
    INDEX 01 03:12:01
  TRACK 139 AUDIO
    TITLE "0:"
    INDEX 01 03:13:26
  TRACK 140 AUDIO
    TITLE "4:cjc058_2153"
    INDEX 01 03:14:34
  TRACK 141 AUDIO
    TITLE "0:"
    INDEX 01 03:16:19
  TRACK 142 AUDIO
    TITLE "5:cjc058_2154"
    INDEX 01 03:16:54
  TRACK 143 AUDIO
    TITLE "0:"
    INDEX 01 03:18:37
  TRACK 144 AUDIO
    TITLE "4:cjc058_2155"
    INDEX 01 03:19:45
  TRACK 145 AUDIO
    TITLE "0:"
    INDEX 01 03:21:16
  TRACK 146 AUDIO
    TITLE "5:cjc058_2156"
    INDEX 01 03:21:51
  TRACK 147 AUDIO
    TITLE "0:"
    INDEX 01 03:23:62
  TRACK 148 AUDIO
    TITLE "4:cjc058_2157"
    INDEX 01 03:24:71
  TRACK 149 AUDIO
    TITLE "0:"
    INDEX 01 03:26:47
  TRACK 150 AUDIO
    TITLE "5:cjc058_2158"
    INDEX 01 03:27:05
  TRACK 151 AUDIO
    TITLE "0:"
    INDEX 01 03:30:13
  TRACK 152 AUDIO
    TITLE "4:cjc058_2159"
    INDEX 01 03:31:22
  TRACK 153 AUDIO
    TITLE "0:"
    INDEX 01 03:32:59
  TRACK 154 AUDIO
    TITLE "5:cjc058_2160"
    INDEX 01 03:33:15
  TRACK 155 AUDIO
    TITLE "0:"
    INDEX 01 03:35:73
  TRACK 156 AUDIO
    TITLE "4:cjc058_2161"
    INDEX 01 03:37:05
  TRACK 157 AUDIO
    TITLE "0:"
    INDEX 01 03:38:62
  TRACK 158 AUDIO
    TITLE "5:cjc058_2162"
    INDEX 01 03:39:20
  TRACK 159 AUDIO
    TITLE "0:"
    INDEX 01 03:42:48
  TRACK 160 AUDIO
    TITLE "4:cjc058_2163"
    INDEX 01 03:43:55
  TRACK 161 AUDIO
    TITLE "0:"
    INDEX 01 03:45:32
  TRACK 162 AUDIO
    TITLE "5:cjc058_2164"
    INDEX 01 03:45:66
  TRACK 163 AUDIO
    TITLE "0:"
    INDEX 01 03:47:27
  TRACK 164 AUDIO
    TITLE "4:cjc058_2165"
    INDEX 01 03:48:33
  TRACK 165 AUDIO
    TITLE "0:"
    INDEX 01 03:49:73
  TRACK 166 AUDIO
    TITLE "5:cjc058_2166"
    INDEX 01 03:50:31
  TRACK 167 AUDIO
    TITLE "0:"
    INDEX 01 03:51:52
  TRACK 168 AUDIO
    TITLE "4:cjc058_2167"
    INDEX 01 03:52:60
  TRACK 169 AUDIO
    TITLE "0:"
    INDEX 01 03:54:59
  TRACK 170 AUDIO
    TITLE "5:cjc058_2168"
    INDEX 01 03:55:17
  TRACK 171 AUDIO
    TITLE "0:"
    INDEX 01 03:57:16
  TRACK 172 AUDIO
    TITLE "4:cjc058_2169"
    INDEX 01 03:58:23
  TRACK 173 AUDIO
    TITLE "0:"
    INDEX 01 04:00:00
  TRACK 174 AUDIO
    TITLE "5:cjc058_2170"
    INDEX 01 04:00:34
  TRACK 175 AUDIO
    TITLE "0:"
    INDEX 01 04:02:64
  TRACK 176 AUDIO
    TITLE "4:cjc058_2171"
    INDEX 01 04:03:73
  TRACK 177 AUDIO
    TITLE "0:"
    INDEX 01 04:05:51
  TRACK 178 AUDIO
    TITLE "5:cjc058_2172"
    INDEX 01 04:06:09
  TRACK 179 AUDIO
    TITLE "0:"
    INDEX 01 04:07:50
  TRACK 180 AUDIO
    TITLE "4:cjc058_2173"
    INDEX 01 04:08:53
  TRACK 181 AUDIO
    TITLE "0:"
    INDEX 01 04:10:26
  TRACK 182 AUDIO
    TITLE "5:cjc058_2174"
    INDEX 01 04:10:60
  TRACK 183 AUDIO
    TITLE "0:"
    INDEX 01 04:12:41
  TRACK 184 AUDIO
    TITLE "4:cjc058_2175"
    INDEX 01 04:13:46
  TRACK 185 AUDIO
    TITLE "0:"
    INDEX 01 04:15:27
  TRACK 186 AUDIO
    TITLE "5:cjc058_2176"
    INDEX 01 04:15:61
  TRACK 187 AUDIO
    TITLE "0:"
    INDEX 01 04:17:34
  TRACK 188 AUDIO
    TITLE "4:cjc058_2177"
    INDEX 01 04:18:42
  TRACK 189 AUDIO
    TITLE "0:"
    INDEX 01 04:20:46
  TRACK 190 AUDIO
    TITLE "5:cjc058_2178"
    INDEX 01 04:21:03
  TRACK 191 AUDIO
    TITLE "0:"
    INDEX 01 04:22:61
  TRACK 192 AUDIO
    TITLE "4:cjc058_2179"
    INDEX 01 04:23:72
  TRACK 193 AUDIO
    TITLE "0:"
    INDEX 01 04:26:16
  TRACK 194 AUDIO
    TITLE "5:cjc058_2180"
    INDEX 01 04:26:49
  TRACK 195 AUDIO
    TITLE "0:"
    INDEX 01 04:29:35
  TRACK 196 AUDIO
    TITLE "4:cjc058_2181"
    INDEX 01 04:30:43
  TRACK 197 AUDIO
    TITLE "0:"
    INDEX 01 04:32:28
  TRACK 198 AUDIO
    TITLE "5:cjc058_2182"
    INDEX 01 04:32:61
  TRACK 199 AUDIO
    TITLE "0:"
    INDEX 01 04:35:34
  TRACK 200 AUDIO
    TITLE "4:cjc058_2183"
    INDEX 01 04:36:43
  TRACK 201 AUDIO
    TITLE "0:"
    INDEX 01 04:37:68
  TRACK 202 AUDIO
    TITLE "5:cjc058_2184"
    INDEX 01 04:38:23
  TRACK 203 AUDIO
    TITLE "0:"
    INDEX 01 04:41:60
  TRACK 204 AUDIO
    TITLE "4:cjc058_2185"
    INDEX 01 04:42:67
  TRACK 205 AUDIO
    TITLE "0:"
    INDEX 01 04:44:57
  TRACK 206 AUDIO
    TITLE "5:cjc058_2186"
    INDEX 01 04:45:13
  TRACK 207 AUDIO
    TITLE "0:"
    INDEX 01 04:46:46
  TRACK 208 AUDIO
    TITLE "4:cjc058_2187"
    INDEX 01 04:47:55
  TRACK 209 AUDIO
    TITLE "0:"
    INDEX 01 04:49:11
  TRACK 210 AUDIO
    TITLE "5:cjc058_2188"
    INDEX 01 04:49:44
  TRACK 211 AUDIO
    TITLE "0:"
    INDEX 01 04:52:42
  TRACK 212 AUDIO
    TITLE "4:cjc058_2189"
    INDEX 01 04:53:52
  TRACK 213 AUDIO
    TITLE "0:"
    INDEX 01 04:55:35
  TRACK 214 AUDIO
    TITLE "5:cjc058_2190"
    INDEX 01 04:55:68
  TRACK 215 AUDIO
    TITLE "0:"
    INDEX 01 04:57:40
  TRACK 216 AUDIO
    TITLE "4:cjc058_2191"
    INDEX 01 04:58:49
  TRACK 217 AUDIO
    TITLE "0:"
    INDEX 01 05:00:52
  TRACK 218 AUDIO
    TITLE "5:cjc058_2192"
    INDEX 01 05:01:10
  TRACK 219 AUDIO
    TITLE "0:"
    INDEX 01 05:04:40
  TRACK 220 AUDIO
    TITLE "4:cjc058_2193"
    INDEX 01 05:05:47
  TRACK 221 AUDIO
    TITLE "0:"
    INDEX 01 05:07:11
  TRACK 222 AUDIO
    TITLE "5:cjc058_2194"
    INDEX 01 05:07:44
  TRACK 223 AUDIO
    TITLE "0:"
    INDEX 01 05:09:41
  TRACK 224 AUDIO
    TITLE "4:cjc058_2195"
    INDEX 01 05:10:46
  TRACK 225 AUDIO
    TITLE "0:"
    INDEX 01 05:12:02
  TRACK 226 AUDIO
    TITLE "5:cjc058_2196"
    INDEX 01 05:12:35
  TRACK 227 AUDIO
    TITLE "0:"
    INDEX 01 05:15:45
  TRACK 228 AUDIO
    TITLE "4:cjc058_2197"
    INDEX 01 05:16:53
  TRACK 229 AUDIO
    TITLE "0:"
    INDEX 01 05:18:59
  TRACK 230 AUDIO
    TITLE "5:cjc058_2198"
    INDEX 01 05:19:18
  TRACK 231 AUDIO
    TITLE "0:"
    INDEX 01 05:22:10
  TRACK 232 AUDIO
    TITLE "4:cjc058_2199"
    INDEX 01 05:23:17
  TRACK 233 AUDIO
    TITLE "0:"
    INDEX 01 05:24:64
  TRACK 234 AUDIO
    TITLE "5:cjc058_2200"
    INDEX 01 05:25:24
  TRACK 235 AUDIO
    TITLE "0:"
    INDEX 01 05:26:59
  TRACK 236 AUDIO
    TITLE "4:cjc058_2201"
    INDEX 01 05:27:66
  TRACK 237 AUDIO
    TITLE "0:"
    INDEX 01 05:29:42
  TRACK 238 AUDIO
    TITLE "5:cjc058_2202"
    INDEX 01 05:30:00
  TRACK 239 AUDIO
    TITLE "0:"
    INDEX 01 05:32:40
  TRACK 240 AUDIO
    TITLE "4:cjc058_2203"
    INDEX 01 05:33:49
  TRACK 241 AUDIO
    TITLE "0:"
    INDEX 01 05:34:64
  TRACK 242 AUDIO
    TITLE "5:cjc058_2204"
    INDEX 01 05:35:23
  TRACK 243 AUDIO
    TITLE "0:"
    INDEX 01 05:37:08
  TRACK 244 AUDIO
    TITLE "4:cjc058_2205"
    INDEX 01 05:38:15
  TRACK 245 AUDIO
    TITLE "0:"
    INDEX 01 05:39:73
  TRACK 246 AUDIO
    TITLE "5:cjc058_2206"
    INDEX 01 05:40:32
  TRACK 247 AUDIO
    TITLE "0:"
    INDEX 01 05:42:17
  TRACK 248 AUDIO
    TITLE "4:cjc058_2207"
    INDEX 01 05:43:24
  TRACK 249 AUDIO
    TITLE "0:"
    INDEX 01 05:45:19
  TRACK 250 AUDIO
    TITLE "5:cjc058_2208"
    INDEX 01 05:45:54
  TRACK 251 AUDIO
    TITLE "0:"
    INDEX 01 05:47:22
  TRACK 252 AUDIO
    TITLE "4:cjc058_2209"
    INDEX 01 05:48:29
  TRACK 253 AUDIO
    TITLE "0:"
    INDEX 01 05:50:40
  TRACK 254 AUDIO
    TITLE "5:cjc058_2210"
    INDEX 01 05:51:00
  TRACK 255 AUDIO
    TITLE "0:"
    INDEX 01 05:54:04
  TRACK 256 AUDIO
    TITLE "4:cjc058_2211"
    INDEX 01 05:55:12
  TRACK 257 AUDIO
    TITLE "0:"
    INDEX 01 05:57:26
  TRACK 258 AUDIO
    TITLE "5:cjc058_2212"
    INDEX 01 05:57:59
  TRACK 259 AUDIO
    TITLE "0:"
    INDEX 01 05:59:70
  TRACK 260 AUDIO
    TITLE "4:cjc058_2213"
    INDEX 01 06:01:02
  TRACK 261 AUDIO
    TITLE "0:"
    INDEX 01 06:02:31
  TRACK 262 AUDIO
    TITLE "5:cjc058_2214"
    INDEX 01 06:02:66
  TRACK 263 AUDIO
    TITLE "0:"
    INDEX 01 06:04:67
  TRACK 264 AUDIO
    TITLE "4:cjc058_2215"
    INDEX 01 06:06:00
  TRACK 265 AUDIO
    TITLE "0:"
    INDEX 01 06:07:52
  TRACK 266 AUDIO
    TITLE "5:cjc058_2216"
    INDEX 01 06:08:08
  TRACK 267 AUDIO
    TITLE "0:"
    INDEX 01 06:09:43
  TRACK 268 AUDIO
    TITLE "4:cjc058_2217"
    INDEX 01 06:10:46
  TRACK 269 AUDIO
    TITLE "0:"
    INDEX 01 06:12:00
  TRACK 270 AUDIO
    TITLE "5:cjc058_2218"
    INDEX 01 06:12:32
  TRACK 271 AUDIO
    TITLE "0:"
    INDEX 01 06:14:07
  TRACK 272 AUDIO
    TITLE "4:cjc058_2219"
    INDEX 01 06:15:14
  TRACK 273 AUDIO
    TITLE "0:"
    INDEX 01 06:16:69
  TRACK 274 AUDIO
    TITLE "5:cjc058_2220"
    INDEX 01 06:17:27
  TRACK 275 AUDIO
    TITLE "0:"
    INDEX 01 06:20:19
  TRACK 276 AUDIO
    TITLE "4:cjc058_2221"
    INDEX 01 06:21:29
  TRACK 277 AUDIO
    TITLE "0:"
    INDEX 01 06:23:04
  TRACK 278 AUDIO
    TITLE "5:cjc058_2222"
    INDEX 01 06:23:39
  TRACK 279 AUDIO
    TITLE "0:"
    INDEX 01 06:25:13
  TRACK 280 AUDIO
    TITLE "4:cjc058_2223"
    INDEX 01 06:26:18
  TRACK 281 AUDIO
    TITLE "0:"
    INDEX 01 06:28:25
  TRACK 282 AUDIO
    TITLE "5:cjc058_2224"
    INDEX 01 06:28:58
  TRACK 283 AUDIO
    TITLE "0:"
    INDEX 01 06:31:13
  TRACK 284 AUDIO
    TITLE "4:cjc058_2225"
    INDEX 01 06:32:21
  TRACK 285 AUDIO
    TITLE "0:"
    INDEX 01 06:33:61
  TRACK 286 AUDIO
    TITLE "5:cjc058_2226"
    INDEX 01 06:34:21
  TRACK 287 AUDIO
    TITLE "0:"
    INDEX 01 06:35:58
  TRACK 288 AUDIO
    TITLE "4:cjc058_2227"
    INDEX 01 06:36:67
  TRACK 289 AUDIO
    TITLE "0:"
    INDEX 01 06:38:51
  TRACK 290 AUDIO
    TITLE "5:cjc058_2228"
    INDEX 01 06:39:09
  TRACK 291 AUDIO
    TITLE "0:"
    INDEX 01 06:40:57
  TRACK 292 AUDIO
    TITLE "4:cjc058_2229"
    INDEX 01 06:41:65
  TRACK 293 AUDIO
    TITLE "0:"
    INDEX 01 06:43:40
  TRACK 294 AUDIO
    TITLE "5:cjc058_2230"
    INDEX 01 06:43:71
  TRACK 295 AUDIO
    TITLE "0:"
    INDEX 01 06:46:01
  TRACK 296 AUDIO
    TITLE "4:cjc058_2231"
    INDEX 01 06:47:08
  TRACK 297 AUDIO
    TITLE "0:"
    INDEX 01 06:48:41
  TRACK 298 AUDIO
    TITLE "5:cjc058_2232"
    INDEX 01 06:48:72
  TRACK 299 AUDIO
    TITLE "0:"
    INDEX 01 06:50:30
  TRACK 300 AUDIO
    TITLE "4:cjc058_2233"
    INDEX 01 06:51:38
  TRACK 301 AUDIO
    TITLE "0:"
    INDEX 01 06:53:01
  TRACK 302 AUDIO
    TITLE "5:cjc058_2234"
    INDEX 01 06:53:36
  TRACK 303 AUDIO
    TITLE "0:"
    INDEX 01 06:54:59
  TRACK 304 AUDIO
    TITLE "4:cjc058_2235"
    INDEX 01 06:55:69
  TRACK 305 AUDIO
    TITLE "0:"
    INDEX 01 06:57:44
  TRACK 306 AUDIO
    TITLE "5:cjc058_2236"
    INDEX 01 06:58:02
  TRACK 307 AUDIO
    TITLE "0:"
    INDEX 01 06:59:43
  TRACK 308 AUDIO
    TITLE "4:cjc058_2237"
    INDEX 01 07:00:54
  TRACK 309 AUDIO
    TITLE "0:"
    INDEX 01 07:02:35
  TRACK 310 AUDIO
    TITLE "5:cjc058_2238"
    INDEX 01 07:02:69
  TRACK 311 AUDIO
    TITLE "0:"
    INDEX 01 07:04:64
  TRACK 312 AUDIO
    TITLE "4:cjc058_2239"
    INDEX 01 07:05:71
  TRACK 313 AUDIO
    TITLE "0:"
    INDEX 01 07:07:42
  TRACK 314 AUDIO
    TITLE "5:cjc058_2240"
    INDEX 01 07:08:01
  TRACK 315 AUDIO
    TITLE "0:"
    INDEX 01 07:09:30
  TRACK 316 AUDIO
    TITLE "4:cjc058_2241"
    INDEX 01 07:10:37
  TRACK 317 AUDIO
    TITLE "0:"
    INDEX 01 07:11:74
  TRACK 318 AUDIO
    TITLE "5:cjc058_2242"
    INDEX 01 07:12:32
  TRACK 319 AUDIO
    TITLE "0:"
    INDEX 01 07:15:13
  TRACK 320 AUDIO
    TITLE "4:cjc058_2243"
    INDEX 01 07:16:18
  TRACK 321 AUDIO
    TITLE "0:"
    INDEX 01 07:18:29
  TRACK 322 AUDIO
    TITLE "5:cjc058_2244"
    INDEX 01 07:18:58
  TRACK 323 AUDIO
    TITLE "0:"
    INDEX 01 07:20:22
  TRACK 324 AUDIO
    TITLE "4:cjc058_2245"
    INDEX 01 07:21:29
  TRACK 325 AUDIO
    TITLE "0:"
    INDEX 01 07:23:04
  TRACK 326 AUDIO
    TITLE "5:cjc058_2246"
    INDEX 01 07:23:39
  TRACK 327 AUDIO
    TITLE "0:"
    INDEX 01 07:24:70
  TRACK 328 AUDIO
    TITLE "4:cjc058_2247"
    INDEX 01 07:26:03
  TRACK 329 AUDIO
    TITLE "0:"
    INDEX 01 07:27:53
  TRACK 330 AUDIO
    TITLE "5:cjc058_2248"
    INDEX 01 07:28:11
  TRACK 331 AUDIO
    TITLE "0:"
    INDEX 01 07:29:21
  TRACK 332 AUDIO
    TITLE "4:cjc058_2249"
    INDEX 01 07:30:28
  TRACK 333 AUDIO
    TITLE "0:"
    INDEX 01 07:32:17
  TRACK 334 AUDIO
    TITLE "5:cjc058_2250"
    INDEX 01 07:32:50
  TRACK 335 AUDIO
    TITLE "0:"
    INDEX 01 07:35:45
  TRACK 336 AUDIO
    TITLE "4:cjc058_2251"
    INDEX 01 07:36:48
  TRACK 337 AUDIO
    TITLE "0:"
    INDEX 01 07:38:18
  TRACK 338 AUDIO
    TITLE "5:cjc058_2252"
    INDEX 01 07:38:51
  TRACK 339 AUDIO
    TITLE "0:"
    INDEX 01 07:40:16
  TRACK 340 AUDIO
    TITLE "4:cjc058_2253"
    INDEX 01 07:41:24
  TRACK 341 AUDIO
    TITLE "0:"
    INDEX 01 07:43:30
  TRACK 342 AUDIO
    TITLE "5:cjc058_2254"
    INDEX 01 07:43:64
  TRACK 343 AUDIO
    TITLE "0:"
    INDEX 01 07:45:49
  TRACK 344 AUDIO
    TITLE "4:cjc058_2255"
    INDEX 01 07:46:56
  TRACK 345 AUDIO
    TITLE "0:"
    INDEX 01 07:49:17
  TRACK 346 AUDIO
    TITLE "5:cjc058_2256"
    INDEX 01 07:49:51
  TRACK 347 AUDIO
    TITLE "0:"
    INDEX 01 07:51:51
  TRACK 348 AUDIO
    TITLE "4:cjc058_2257"
    INDEX 01 07:52:59
  TRACK 349 AUDIO
    TITLE "0:"
    INDEX 01 07:54:34
  TRACK 350 AUDIO
    TITLE "5:cjc058_2258"
    INDEX 01 07:54:67
  TRACK 351 AUDIO
    TITLE "0:"
    INDEX 01 07:58:22
  TRACK 352 AUDIO
    TITLE "4:cjc058_2259"
    INDEX 01 07:59:33
  TRACK 353 AUDIO
    TITLE "0:"
    INDEX 01 08:00:74
  TRACK 354 AUDIO
    TITLE "5:cjc058_2260"
    INDEX 01 08:01:32
  TRACK 355 AUDIO
    TITLE "0:"
    INDEX 01 08:02:67
  TRACK 356 AUDIO
    TITLE "4:cjc058_2261"
    INDEX 01 08:03:70
  TRACK 357 AUDIO
    TITLE "0:"
    INDEX 01 08:05:57
  TRACK 358 AUDIO
    TITLE "5:cjc058_2262"
    INDEX 01 08:06:16
  TRACK 359 AUDIO
    TITLE "0:"
    INDEX 01 08:07:64
  TRACK 360 AUDIO
    TITLE "4:cjc058_2263"
    INDEX 01 08:08:72
  TRACK 361 AUDIO
    TITLE "0:"
    INDEX 01 08:10:70
  TRACK 362 AUDIO
    TITLE "5:cjc058_2264"
    INDEX 01 08:11:25
  TRACK 363 AUDIO
    TITLE "0:"
    INDEX 01 08:14:25
  TRACK 364 AUDIO
    TITLE "4:cjc058_2265"
    INDEX 01 08:15:32
  TRACK 365 AUDIO
    TITLE "0:"
    INDEX 01 08:17:04
  TRACK 366 AUDIO
    TITLE "5:cjc058_2266"
    INDEX 01 08:17:39
  TRACK 367 AUDIO
    TITLE "0:"
    INDEX 01 08:19:69
  TRACK 368 AUDIO
    TITLE "4:cjc058_2267"
    INDEX 01 08:21:04
  TRACK 369 AUDIO
    TITLE "0:"
    INDEX 01 08:22:50
  TRACK 370 AUDIO
    TITLE "5:cjc058_2268"
    INDEX 01 08:23:08
  TRACK 371 AUDIO
    TITLE "0:"
    INDEX 01 08:24:47
  TRACK 372 AUDIO
    TITLE "4:cjc058_2269"
    INDEX 01 08:25:54
  TRACK 373 AUDIO
    TITLE "0:"
    INDEX 01 08:27:16
  TRACK 374 AUDIO
    TITLE "5:cjc058_2270"
    INDEX 01 08:27:49
  TRACK 375 AUDIO
    TITLE "0:"
    INDEX 01 08:30:22
  TRACK 376 AUDIO
    TITLE "4:cjc058_2271"
    INDEX 01 08:31:26
  TRACK 377 AUDIO
    TITLE "0:"
    INDEX 01 08:32:58
  TRACK 378 AUDIO
    TITLE "5:cjc058_2272"
    INDEX 01 08:33:17
  TRACK 379 AUDIO
    TITLE "0:"
    INDEX 01 08:35:41
  TRACK 380 AUDIO
    TITLE "4:cjc058_2273"
    INDEX 01 08:36:46
  TRACK 381 AUDIO
    TITLE "0:"
    INDEX 01 08:38:53
  TRACK 382 AUDIO
    TITLE "5:cjc058_2274"
    INDEX 01 08:39:11
  TRACK 383 AUDIO
    TITLE "0:"
    INDEX 01 08:41:59
  TRACK 384 AUDIO
    TITLE "4:cjc058_2275"
    INDEX 01 08:42:65
  TRACK 385 AUDIO
    TITLE "0:"
    INDEX 01 08:44:40
  TRACK 386 AUDIO
    TITLE "5:cjc058_2276"
    INDEX 01 08:44:73
  TRACK 387 AUDIO
    TITLE "0:"
    INDEX 01 08:47:27
  TRACK 388 AUDIO
    TITLE "4:cjc058_2277"
    INDEX 01 08:48:34
  TRACK 389 AUDIO
    TITLE "0:"
    INDEX 01 08:49:57
  TRACK 390 AUDIO
    TITLE "5:cjc058_2278"
    INDEX 01 08:50:15
  TRACK 391 AUDIO
    TITLE "0:"
    INDEX 01 08:51:73
  TRACK 392 AUDIO
    TITLE "4:cjc058_2279"
    INDEX 01 08:53:08
  TRACK 393 AUDIO
    TITLE "0:"
    INDEX 01 08:54:36
  TRACK 394 AUDIO
    TITLE "5:cjc058_2280"
    INDEX 01 08:54:70
  TRACK 395 AUDIO
    TITLE "0:"
    INDEX 01 08:58:07
  TRACK 396 AUDIO
    TITLE "4:cjc058_2281"
    INDEX 01 08:59:14
  TRACK 397 AUDIO
    TITLE "0:"
    INDEX 01 09:01:07
  TRACK 398 AUDIO
    TITLE "5:cjc058_2282"
    INDEX 01 09:01:40
  TRACK 399 AUDIO
    TITLE "0:"
    INDEX 01 09:03:14
